<svg version="1.1" xmlns="http://www.w3.org/2000/svg" xmlns:xlink="http://www.w3.org/1999/xlink" width="1820" height="630" viewBox="0 0 1820 630">
<g id="colors">
<path id="pink" d="M-0.000,0.000 L70.000,0.000 L70.000,630.000 L-0.000,630.000 L-0.000,0.000 z" fill="#FF34B2" />
<path id="green-1" d="M70.000,0.000 L257.000,0.000 L257.000,630.000 L70.000,630.000 L70.000,0.000 z" fill="#238647" />
<path id="green-2" d="M257.000,0.000 L373.000,0.000 L373.000,630.000 L257.000,630.000 L257.000,0.000 z" fill="#2F9B47" />
<path id="green-3" d="M373.000,0.000 L490.000,0.000 L490.000,630.000 L373.000,630.000 L373.000,0.000 z" fill="#62B64F" />
<path id="green-4" d="M490.000,0.000 L664.000,0.000 L664.000,630.000 L490.000,630.000 L490.000,0.000 z" fill="#89CC53" />
<path id="blue-1" d="M664.000,0.000 L770.000,0.000 L770.000,630.000 L664.000,630.000 L664.000,0.000 z" fill="#3DB8AD" />
<path id="blue-2" d="M770.000,0.000 L910.000,0.000 L910.000,630.000 L770.000,630.000 L770.000,0.000 z" fill="#3394D7" />
<path id="blue-3" d="M910.000,0.000 L1050.000,0.000 L1050.000,630.000 L910.000,630.000 L910.000,0.000 z" fill="#2872BC" />
<path id="blue-4" d="M1050.000,0.000 L1155.000,0.000 L1155.000,630.000 L1050.000,630.000 L1050.000,0.000 z" fill="#1D5C84" />
<path id="red-1" d="M1155.000,0.000 L1330.000,0.000 L1330.000,630.000 L1155.000,630.000 L1155.000,0.000 z" fill="#993233" />
<path id="red-2" d="M1330.000,0.000 L1447.000,0.000 L1447.000,630.000 L1330.000,630.000 L1330.000,0.000 z" fill="#E13030" />
<path id="orange" d="M1447.000,0.000 L1563.000,0.000 L1563.000,630.000 L1447.000,630.000 L1447.000,0.000 z" fill="#F28825" />
<path id="gold" d="M1563.000,0.000 L1750.000,0.000 L1750.000,630.000 L1563.000,630.000 L1563.000,0.000 z" fill="#F5C836" />
<path id="pink" d="M1750.000,0.000 L1820.000,0.000 L1820.000,630.000 L1750.000,630.000 L1750.000,0.000 z" fill="#FF34B2" />
</g>
</svg>
