<svg id="text" xmlns="http://www.w3.org/2000/svg" width="1820" height="630" viewBox="0 0 1820 630">
  <metadata><?xpacket begin="﻿" id="W5M0MpCehiHzreSzNTczkc9d"?>
<x:xmpmeta xmlns:x="adobe:ns:meta/" x:xmptk="Adobe XMP Core 5.6-c142 79.160924, 2017/07/13-01:06:39        ">
   <rdf:RDF xmlns:rdf="http://www.w3.org/1999/02/22-rdf-syntax-ns#">
      <rdf:Description rdf:about=""/>
   </rdf:RDF>
</x:xmpmeta>
                                                                                                    
                                                                                                    
                                                                                                    
                                                                                                    
                                                                                                    
                                                                                                    
                                                                                                    
                                                                                                    
                                                                                                    
                                                                                                    
                                                                                                    
                                                                                                    
                                                                                                    
                                                                                                    
                                                                                                    
                                                                                                    
                                                                                                    
                                                                                                    
                                                                                                    
                                                                                                    
                           
<?xpacket end="w"?></metadata>
<defs>
    <style>
      .cls-1 {
        fill-rule: evenodd;
      }
    </style>
  </defs>
  <path id="_" data-name="!" class="cls-1" d="M0,140H70V490H0V140ZM0,0H70V70.005H0V0Z"/>
  <path id="q" class="cls-1" d="M1679,144.929V303.681h-0.27c0.18,2.919.27,5.864,0.27,8.819V630h-70.67V453.586a175.959,175.959,0,0,1-106,35.3c-97.52,0-176.67-79.04-176.67-176.39s79.15-176.39,176.67-176.39a175.975,175.975,0,0,1,111.39,39.538l3.44-30.719H1679ZM1396.33,312.5c0-63.28,49.47-114.654,110.42-114.654S1617.16,249.22,1617.16,312.5s-49.46,114.654-110.41,114.654S1396.33,375.78,1396.33,312.5Z"/>
  <path id="n" class="cls-1" d="M944.833,485.071V299.861c0-87.613,71.247-158.751,159-158.751s159,71.138,159,158.751v185.21h-70.67V299.861c0-53.543-39.58-97.015-88.33-97.015s-88.33,43.472-88.33,97.015v185.21H944.833Z"/>
  <path id="u" class="cls-1" d="M877.167,149.929v185.21c0,87.613-71.249,158.751-159,158.751s-159-71.138-159-158.751V149.929h70.666v185.21c0,53.543,39.582,97.015,88.333,97.015S806.5,388.682,806.5,335.139V149.929h70.666Z"/>
  <path id="b" class="cls-1" d="M140,485.071V326.319h0.265C140.093,323.4,140,320.455,140,317.5V0h70.667V176.414a175.963,175.963,0,0,1,106-35.3c97.519,0,176.666,79.04,176.666,176.39S414.189,493.89,316.67,493.89a175.957,175.957,0,0,1-111.388-39.538l-3.445,30.719H140ZM422.669,317.5c0,63.28-49.466,114.654-110.416,114.654S201.837,380.78,201.837,317.5,251.3,202.846,312.253,202.846,422.669,254.22,422.669,317.5Z"/>
  <path id="i" class="cls-1" d="M1750,140h70V490h-70V140Zm70,490h-70V560h70V630Z"/>
</svg>
