<?xml version="1.0" encoding="UTF-8" standalone="no"?>
<!DOCTYPE svg PUBLIC "-//W3C//DTD SVG 1.1//EN" "http://www.w3.org/Graphics/SVG/1.1/DTD/svg11.dtd">
<svg width="100%" height="100%" viewBox="0 0 256 184" version="1.1" xmlns="http://www.w3.org/2000/svg" xmlns:xlink="http://www.w3.org/1999/xlink" xml:space="preserve" style="fill-rule:evenodd;clip-rule:evenodd;stroke-linejoin:round;stroke-miterlimit:1.41421;">
    <g transform="matrix(1,0,0,1,-1780,0)">
        <g id="Logo_Botf" transform="matrix(1,0,0,1.21053,1780,1.13687e-13)">
            <rect x="0" y="0" width="256" height="152" style="fill:none;"/>
            <g transform="matrix(1,0,0,0.826087,-541,-49.5652)">
                <g transform="matrix(1,0,0,1,307,0)">
                    <path d="M350,117L358,117L358,138C358,147.934 349.934,156 340,156C330.066,156 322,147.934 322,138L322,117L330,117L330,138C330,144.071 334.481,149 340,149C345.519,149 350,144.071 350,138L350,117Z"/>
                </g>
                <g transform="matrix(1,0,0,-1,351,272)">
                    <path d="M350,117L358,117L358,138C358,147.934 349.934,156 340,156C330.066,156 322,147.934 322,138L322,117L330,117L330,138C330,144.071 334.481,149 340,149C345.519,149 350,144.071 350,138L350,117Z"/>
                </g>
                <g transform="matrix(1,0,0,1,-1342,-98)">
                    <path d="M1931,253L1924,253L1924,235L1924.03,235C1924.01,234.669 1924,234.335 1924,234L1924,198L1932,198L1932,218.003C1935.34,215.49 1939.5,214 1944,214C1955.04,214 1964,222.962 1964,234C1964,245.038 1955.04,254 1944,254C1939.22,254 1934.83,252.319 1931.39,249.517L1931,253ZM1943.5,221C1950.4,221 1956,226.825 1956,234C1956,241.175 1950.4,247 1943.5,247C1936.6,247 1931,241.175 1931,234C1931,226.825 1936.6,221 1943.5,221Z"/>
                </g>
                <g transform="matrix(-1,0,0,-1,2680,370)">
                    <path d="M1931,253L1924,253L1924,235L1924.03,235C1924.01,234.669 1924,234.335 1924,234L1924,198L1932,198L1932,218.003C1935.34,215.49 1939.5,214 1944,214C1955.04,214 1964,222.962 1964,234C1964,245.038 1955.04,254 1944,254C1939.22,254 1934.83,252.319 1931.39,249.517L1931,253ZM1943.5,221C1950.4,221 1956,226.825 1956,234C1956,241.175 1950.4,247 1943.5,247C1936.6,247 1931,241.175 1931,234C1931,226.825 1936.6,221 1943.5,221Z"/>
                </g>
            </g>
            <g transform="matrix(0.258071,0,0,0.213717,-435.839,88.5749)">
                <path d="M1879.96,114.15C1884.86,112.422 1887.24,108.966 1887.24,104.43C1887.24,97.95 1882.63,92.766 1874.42,91.758C1871.9,91.47 1870.75,91.47 1868.08,91.47L1847.71,91.47L1847.71,141.15L1867.51,141.15C1870.68,141.15 1872.33,141.15 1874.85,140.862C1881.55,140.07 1889.11,135.462 1889.11,126.174C1889.11,120.126 1886.23,115.95 1879.96,114.15ZM1860.67,101.55L1866.5,101.55C1867.65,101.55 1868.8,101.622 1869.74,101.766C1872.19,102.126 1873.7,103.494 1873.7,106.302C1873.7,109.254 1872.04,110.478 1869.67,110.838C1868.73,110.982 1867.65,111.054 1866.5,111.054L1860.67,111.054L1860.67,101.55ZM1870.89,130.998C1869.96,131.07 1868.8,131.07 1867.65,131.07L1860.67,131.07L1860.67,120.414L1867.29,120.414C1868.44,120.414 1869.6,120.414 1870.53,120.486C1873.2,120.702 1875.57,122.43 1875.57,125.742C1875.57,128.982 1873.2,130.854 1870.89,130.998Z" style="fill-rule:nonzero;"/>
                <path d="M1924.68,128.262L1928.85,141.15L1942.96,141.15L1925.04,91.47L1909.2,91.47L1891.27,141.15L1905.02,141.15L1909.2,128.262L1924.68,128.262ZM1916.97,102.918L1921.58,118.182L1912.36,118.182L1916.97,102.918Z" style="fill-rule:nonzero;"/>
                <path d="M1995.16,141.15L1995.16,91.47L1982.2,91.47L1982.2,112.71C1982.2,115.59 1982.28,120.702 1982.64,125.742L1963.77,91.47L1947.64,91.47L1947.64,141.15L1960.6,141.15L1960.6,120.63C1960.6,117.75 1960.6,113.358 1960.17,108.318L1978.24,141.15L1995.16,141.15Z" style="fill-rule:nonzero;"/>
                <path d="M2030.73,114.87L2052.19,91.47L2036.71,91.47L2017.77,113.43L2017.77,91.47L2004.81,91.47L2004.81,141.15L2017.77,141.15L2017.77,125.886L2021.3,121.998L2035.34,141.15L2051.54,141.15L2030.73,114.87Z" style="fill-rule:nonzero;"/>
                <path d="M2094.52,90.462C2079.04,90.462 2069.11,100.326 2069.11,116.31C2069.11,132.222 2079.04,142.158 2094.52,142.158C2110,142.158 2119.94,132.222 2119.94,116.31C2119.94,100.326 2110,90.462 2094.52,90.462ZM2094.52,132.654C2087.04,132.654 2082.36,126.822 2082.36,116.31C2082.36,105.726 2087.04,99.966 2094.52,99.966C2102.01,99.966 2106.69,105.726 2106.69,116.31C2106.69,126.822 2102.01,132.654 2094.52,132.654Z" style="fill-rule:nonzero;"/>
                <path d="M2140.68,101.55L2165.08,101.55L2165.08,91.47L2127.72,91.47L2127.72,141.15L2140.68,141.15L2140.68,121.278L2162.92,121.278L2162.92,111.198L2140.68,111.198L2140.68,101.55Z" style="fill-rule:nonzero;"/>
                <path d="M2225.13,101.55L2225.13,91.47L2179.92,91.47L2179.92,101.55L2196.04,101.55L2196.04,141.15L2209,141.15L2209,101.55L2225.13,101.55Z" style="fill-rule:nonzero;"/>
                <path d="M2275.96,91.47L2263,91.47L2263,111.774L2243.13,111.774L2243.13,91.47L2230.17,91.47L2230.17,141.15L2243.13,141.15L2243.13,121.854L2263,121.854L2263,141.15L2275.96,141.15L2275.96,91.47Z" style="fill-rule:nonzero;"/>
                <path d="M2323.7,131.07L2298.57,131.07L2298.57,121.278L2321.54,121.278L2321.54,111.198L2298.57,111.198L2298.57,101.55L2322.98,101.55L2322.98,91.47L2285.61,91.47L2285.61,141.15L2323.7,141.15L2323.7,131.07Z" style="fill-rule:nonzero;"/>
                <path d="M2357.25,101.55L2381.66,101.55L2381.66,91.47L2344.29,91.47L2344.29,141.15L2357.25,141.15L2357.25,121.278L2379.5,121.278L2379.5,111.198L2357.25,111.198L2357.25,101.55Z" style="fill-rule:nonzero;"/>
                <path d="M2427.31,129.054C2426.59,123.078 2424.72,119.262 2419.53,117.39C2426.16,115.446 2429.54,111.27 2429.54,105.006C2429.54,96.222 2423.28,92.694 2416.08,91.83C2413.41,91.542 2411.4,91.47 2408.3,91.47L2388.57,91.47L2388.57,141.15L2401.53,141.15L2401.53,122.286L2404.41,122.286C2405.85,122.286 2407.08,122.286 2408.52,122.358C2411.83,122.574 2413.99,125.742 2414.64,131.214C2415.07,134.742 2415.79,137.622 2416.94,141.15L2431.05,141.15C2429.11,138.198 2427.96,134.67 2427.31,129.054ZM2401.53,112.926L2401.53,101.55L2406.57,101.55C2407.94,101.55 2409.09,101.55 2410.03,101.622C2413.34,101.91 2416,103.062 2416,107.238C2416,111.414 2412.98,112.566 2409.67,112.854C2408.73,112.926 2407.58,112.926 2406.21,112.926L2401.53,112.926Z" style="fill-rule:nonzero;"/>
                <path d="M2475.76,131.07L2450.64,131.07L2450.64,121.278L2473.6,121.278L2473.6,111.198L2450.64,111.198L2450.64,101.55L2475.04,101.55L2475.04,91.47L2437.68,91.47L2437.68,141.15L2475.76,141.15L2475.76,131.07Z" style="fill-rule:nonzero;"/>
                <path d="M2521.77,131.07L2496.64,131.07L2496.64,121.278L2519.61,121.278L2519.61,111.198L2496.64,111.198L2496.64,101.55L2521.05,101.55L2521.05,91.47L2483.68,91.47L2483.68,141.15L2521.77,141.15L2521.77,131.07Z" style="fill-rule:nonzero;"/>
            </g>
            <g transform="matrix(1,0,0,0.826087,-1780,-9.39152e-14)">
                <rect x="1780" y="0" width="256" height="184" style="fill:none;"/>
            </g>
        </g>
    </g>
</svg>
